{
    "asset" : {
        "generator" : "Khronos glTF Blender I/O v3.4.50",
        "version" : "2.0"
    },
    "scene" : 0,
    "scenes" : [
        {
            "name" : "Scene",
            "nodes" : [
                0,
                1,
                2,
                3,
                4,
                5
            ]
        }
    ],
    "nodes" : [
        {
            "mesh" : 0,
            "name" : "Circle",
            "scale" : [
                0.21117542684078217,
                0.21117542684078217,
                0.21117542684078217
            ],
            "translation" : [
                -2.1091902256011963,
                -0.022982686758041382,
                0
            ]
        },
        {
            "mesh" : 1,
            "name" : "Circle.001",
            "scale" : [
                -0.2960062026977539,
                -0.2960062026977539,
                -0.2960062026977539
            ],
            "translation" : [
                -1.2674732208251953,
                0,
                0
            ]
        },
        {
            "mesh" : 2,
            "name" : "Circle.002",
            "scale" : [
                0.3005295991897583,
                0.3005295991897583,
                0.3005295991897583
            ],
            "translation" : [
                -0.3498374819755554,
                0,
                0
            ]
        },
        {
            "mesh" : 3,
            "name" : "Circle.003",
            "scale" : [
                0.29090428352355957,
                0.29090428352355957,
                0.29090428352355957
            ],
            "translation" : [
                0.5812821984291077,
                0,
                0
            ]
        },
        {
            "mesh" : 4,
            "name" : "Circle.004",
            "scale" : [
                0.2554309368133545,
                0.2554309368133545,
                0.2554309368133545
            ],
            "translation" : [
                1.4839653968811035,
                0,
                0
            ]
        },
        {
            "mesh" : 5,
            "name" : "Circle.005",
            "scale" : [
                0.24422460794448853,
                0.24422460794448853,
                0.24422460794448853
            ],
            "translation" : [
                2.3383586406707764,
                0,
                0
            ]
        }
    ],
    "materials" : [
        {
            "doubleSided" : true,
            "name" : "Material.001",
            "pbrMetallicRoughness" : {
                "baseColorFactor" : [
                    0.800000011920929,
                    0.800000011920929,
                    0.800000011920929,
                    1
                ],
                "metallicFactor" : 0,
                "roughnessFactor" : 0.5
            }
        }
    ],
    "meshes" : [
        {
            "name" : "Circle",
            "primitives" : [
                {
                    "attributes" : {
                        "POSITION" : 0,
                        "TEXCOORD_0" : 1,
                        "NORMAL" : 2
                    },
                    "indices" : 3,
                    "material" : 0
                }
            ]
        },
        {
            "name" : "Circle.001",
            "primitives" : [
                {
                    "attributes" : {
                        "POSITION" : 4,
                        "TEXCOORD_0" : 5,
                        "NORMAL" : 6
                    },
                    "indices" : 7,
                    "material" : 0
                }
            ]
        },
        {
            "name" : "Circle.002",
            "primitives" : [
                {
                    "attributes" : {
                        "POSITION" : 8,
                        "TEXCOORD_0" : 9,
                        "NORMAL" : 10
                    },
                    "indices" : 11,
                    "material" : 0
                }
            ]
        },
        {
            "name" : "Circle.003",
            "primitives" : [
                {
                    "attributes" : {
                        "POSITION" : 12,
                        "TEXCOORD_0" : 13,
                        "NORMAL" : 14
                    },
                    "indices" : 15,
                    "material" : 0
                }
            ]
        },
        {
            "name" : "Circle.004",
            "primitives" : [
                {
                    "attributes" : {
                        "POSITION" : 16,
                        "TEXCOORD_0" : 17,
                        "NORMAL" : 18
                    },
                    "indices" : 19,
                    "material" : 0
                }
            ]
        },
        {
            "name" : "Circle.005",
            "primitives" : [
                {
                    "attributes" : {
                        "POSITION" : 20,
                        "TEXCOORD_0" : 21,
                        "NORMAL" : 22
                    },
                    "indices" : 23,
                    "material" : 0
                }
            ]
        }
    ],
    "accessors" : [
        {
            "bufferView" : 0,
            "componentType" : 5126,
            "count" : 738,
            "max" : [
                1.2170230150222778,
                4.346595764160156,
                1.2001210451126099
            ],
            "min" : [
                -1.2036067247390747,
                0,
                -1.2001210451126099
            ],
            "type" : "VEC3"
        },
        {
            "bufferView" : 1,
            "componentType" : 5126,
            "count" : 738,
            "type" : "VEC2"
        },
        {
            "bufferView" : 2,
            "componentType" : 5126,
            "count" : 738,
            "type" : "VEC3"
        },
        {
            "bufferView" : 3,
            "componentType" : 5123,
            "count" : 4416,
            "type" : "SCALAR"
        },
        {
            "bufferView" : 4,
            "componentType" : 5126,
            "count" : 2300,
            "max" : [
                1.1555627584457397,
                0,
                1.028666615486145
            ],
            "min" : [
                -1.0435868501663208,
                -4.0881547927856445,
                -1.028666615486145
            ],
            "type" : "VEC3"
        },
        {
            "bufferView" : 5,
            "componentType" : 5126,
            "count" : 2300,
            "type" : "VEC2"
        },
        {
            "bufferView" : 6,
            "componentType" : 5126,
            "count" : 2300,
            "type" : "VEC3"
        },
        {
            "bufferView" : 7,
            "componentType" : 5123,
            "count" : 3744,
            "type" : "SCALAR"
        },
        {
            "bufferView" : 8,
            "componentType" : 5126,
            "count" : 4268,
            "max" : [
                1.1813570261001587,
                6.732465744018555,
                1.1813570261001587
            ],
            "min" : [
                -1.1813570261001587,
                0,
                -1.1813570261001587
            ],
            "type" : "VEC3"
        },
        {
            "bufferView" : 9,
            "componentType" : 5126,
            "count" : 4268,
            "type" : "VEC2"
        },
        {
            "bufferView" : 10,
            "componentType" : 5126,
            "count" : 4268,
            "type" : "VEC3"
        },
        {
            "bufferView" : 11,
            "componentType" : 5123,
            "count" : 6576,
            "type" : "SCALAR"
        },
        {
            "bufferView" : 12,
            "componentType" : 5126,
            "count" : 4982,
            "max" : [
                1.190041422843933,
                5.681442737579346,
                1.1505682468414307
            ],
            "min" : [
                -1.1110951900482178,
                -0.0030363942496478558,
                -1.1505682468414307
            ],
            "type" : "VEC3"
        },
        {
            "bufferView" : 13,
            "componentType" : 5126,
            "count" : 4982,
            "type" : "VEC2"
        },
        {
            "bufferView" : 14,
            "componentType" : 5126,
            "count" : 4982,
            "type" : "VEC3"
        },
        {
            "bufferView" : 15,
            "componentType" : 5123,
            "count" : 7482,
            "type" : "SCALAR"
        },
        {
            "bufferView" : 16,
            "componentType" : 5126,
            "count" : 4860,
            "max" : [
                1.1903278827667236,
                5.7471022605896,
                1.1903280019760132
            ],
            "min" : [
                -1.1903282403945923,
                0,
                -1.1903280019760132
            ],
            "type" : "VEC3"
        },
        {
            "bufferView" : 17,
            "componentType" : 5126,
            "count" : 4860,
            "type" : "VEC2"
        },
        {
            "bufferView" : 18,
            "componentType" : 5126,
            "count" : 4860,
            "type" : "VEC3"
        },
        {
            "bufferView" : 19,
            "componentType" : 5123,
            "count" : 7290,
            "type" : "SCALAR"
        },
        {
            "bufferView" : 20,
            "componentType" : 5126,
            "count" : 3900,
            "max" : [
                1.2284116744995117,
                4.438061714172363,
                1.223388433456421
            ],
            "min" : [
                -1.2183654308319092,
                0,
                -1.223388433456421
            ],
            "type" : "VEC3"
        },
        {
            "bufferView" : 21,
            "componentType" : 5126,
            "count" : 3900,
            "type" : "VEC2"
        },
        {
            "bufferView" : 22,
            "componentType" : 5126,
            "count" : 3900,
            "type" : "VEC3"
        },
        {
            "bufferView" : 23,
            "componentType" : 5123,
            "count" : 6132,
            "type" : "SCALAR"
        }
    ],
    "bufferViews" : [
        {
            "buffer" : 0,
            "byteLength" : 8856,
            "byteOffset" : 0,
            "target" : 34962
        },
        {
            "buffer" : 0,
            "byteLength" : 5904,
            "byteOffset" : 8856,
            "target" : 34962
        },
        {
            "buffer" : 0,
            "byteLength" : 8856,
            "byteOffset" : 14760,
            "target" : 34962
        },
        {
            "buffer" : 0,
            "byteLength" : 8832,
            "byteOffset" : 23616,
            "target" : 34963
        },
        {
            "buffer" : 0,
            "byteLength" : 27600,
            "byteOffset" : 32448,
            "target" : 34962
        },
        {
            "buffer" : 0,
            "byteLength" : 18400,
            "byteOffset" : 60048,
            "target" : 34962
        },
        {
            "buffer" : 0,
            "byteLength" : 27600,
            "byteOffset" : 78448,
            "target" : 34962
        },
        {
            "buffer" : 0,
            "byteLength" : 7488,
            "byteOffset" : 106048,
            "target" : 34963
        },
        {
            "buffer" : 0,
            "byteLength" : 51216,
            "byteOffset" : 113536,
            "target" : 34962
        },
        {
            "buffer" : 0,
            "byteLength" : 34144,
            "byteOffset" : 164752,
            "target" : 34962
        },
        {
            "buffer" : 0,
            "byteLength" : 51216,
            "byteOffset" : 198896,
            "target" : 34962
        },
        {
            "buffer" : 0,
            "byteLength" : 13152,
            "byteOffset" : 250112,
            "target" : 34963
        },
        {
            "buffer" : 0,
            "byteLength" : 59784,
            "byteOffset" : 263264,
            "target" : 34962
        },
        {
            "buffer" : 0,
            "byteLength" : 39856,
            "byteOffset" : 323048,
            "target" : 34962
        },
        {
            "buffer" : 0,
            "byteLength" : 59784,
            "byteOffset" : 362904,
            "target" : 34962
        },
        {
            "buffer" : 0,
            "byteLength" : 14964,
            "byteOffset" : 422688,
            "target" : 34963
        },
        {
            "buffer" : 0,
            "byteLength" : 58320,
            "byteOffset" : 437652,
            "target" : 34962
        },
        {
            "buffer" : 0,
            "byteLength" : 38880,
            "byteOffset" : 495972,
            "target" : 34962
        },
        {
            "buffer" : 0,
            "byteLength" : 58320,
            "byteOffset" : 534852,
            "target" : 34962
        },
        {
            "buffer" : 0,
            "byteLength" : 14580,
            "byteOffset" : 593172,
            "target" : 34963
        },
        {
            "buffer" : 0,
            "byteLength" : 46800,
            "byteOffset" : 607752,
            "target" : 34962
        },
        {
            "buffer" : 0,
            "byteLength" : 31200,
            "byteOffset" : 654552,
            "target" : 34962
        },
        {
            "buffer" : 0,
            "byteLength" : 46800,
            "byteOffset" : 685752,
            "target" : 34962
        },
        {
            "buffer" : 0,
            "byteLength" : 12264,
            "byteOffset" : 732552,
            "target" : 34963
        }
    ],
    "buffers" : [
        {
            "byteLength" : 744816,
            "uri" : "data:application/octet-stream;base64,"
        }
    ]
}
